<svg width="29" height="26" viewBox="0 0 29 26" fill="none" xmlns="http://www.w3.org/2000/svg">
<path opacity="0.88" d="M26.6785 5.20412H4.27846C3.98141 5.20412 3.69654 5.08612 3.4865 4.87608C3.27646 4.66604 3.15846 4.38116 3.15846 4.08412C3.15846 3.78708 3.27646 3.5022 3.4865 3.29216C3.69654 3.08212 3.98141 2.96412 4.27846 2.96412H23.3185C23.6155 2.96412 23.9004 2.84612 24.1104 2.63608C24.3205 2.42604 24.4385 2.14116 24.4385 1.84412C24.4385 1.54708 24.3205 1.2622 24.1104 1.05216C23.9004 0.842121 23.6155 0.724121 23.3185 0.724121H4.27846C3.38733 0.724121 2.5327 1.07812 1.90258 1.70824C1.27246 2.33836 0.918457 3.19299 0.918457 4.08412V22.0041C0.918457 22.8952 1.27246 23.7499 1.90258 24.38C2.5327 25.0101 3.38733 25.3641 4.27846 25.3641H26.6785C27.2725 25.3641 27.8423 25.1281 28.2624 24.708C28.6825 24.288 28.9185 23.7182 28.9185 23.1241V7.44412C28.9185 6.85004 28.6825 6.28028 28.2624 5.8602C27.8423 5.44012 27.2725 5.20412 26.6785 5.20412ZM26.6785 23.1241H4.27846C3.98141 23.1241 3.69654 23.0061 3.4865 22.7961C3.27646 22.586 3.15846 22.3012 3.15846 22.0041V7.25232C3.51808 7.3798 3.8969 7.44468 4.27846 7.44412H26.6785V23.1241ZM19.9585 14.7241C19.9585 14.3918 20.057 14.067 20.2416 13.7908C20.4262 13.5145 20.6886 13.2992 20.9956 13.172C21.3025 13.0448 21.6403 13.0116 21.9662 13.0764C22.2921 13.1412 22.5914 13.3012 22.8264 13.5362C23.0613 13.7711 23.2214 14.0705 23.2862 14.3964C23.351 14.7223 23.3177 15.06 23.1906 15.367C23.0634 15.674 22.8481 15.9364 22.5718 16.121C22.2955 16.3056 21.9707 16.4041 21.6385 16.4041C21.1929 16.4041 20.7656 16.2271 20.4505 15.9121C20.1355 15.597 19.9585 15.1697 19.9585 14.7241Z" fill="white"/>
</svg>
