<svg width="1028" height="1214" viewBox="0 0 1028 1214" fill="none" xmlns="http://www.w3.org/2000/svg">
<path d="M0 3H617C700.395 3 768 70.605 768 154V154C768 237.395 700.395 305 617 305H603.25H455.5" stroke="#742AFB" stroke-width="5"/>
<path d="M438.5 909H617C700.395 909 768 841.395 768 758V758C768 674.605 700.395 607 617 607H462" stroke="#742AFB" stroke-width="5"/>
<path d="M569.75 305H495H454C370.605 305 303 372.605 303 456V456C303 539.395 370.605 607 454 607H569.75" stroke="#742AFB" stroke-width="5"/>
<path d="M569.75 909H495H454C370.605 909 303 976.605 303 1060V1060C303 1143.39 370.605 1211 454 1211H1027.5" stroke="#742AFB" stroke-width="5"/>
</svg>
